<?xml version="1.0" encoding="utf-8"?>
<!-- Uploaded to: SVG Repo, www.svgrepo.com, Generator: SVG Repo Mixer Tools -->
<svg width="800px" height="800px" viewBox="0 0 1024 1024" class="icon"  version="1.1" xmlns="http://www.w3.org/2000/svg"><path d="M512 224C229.216 224 0 453.216 0 736h1024c0-282.784-229.216-512-512-512z" fill="#EAEAEA" /><path d="M608 96h-192a32 32 0 1 0 0 64h64v64h64V160h64a32 32 0 1 0 0-64z" fill="#E6E6E6" /><path d="M512 192c10.816 0 21.376 0.96 32 1.632v-32c-10.656-0.64-21.184-1.632-32-1.632s-21.344 0.992-32 1.632v32c10.624-0.672 21.184-1.632 32-1.632z" fill="" /><path d="M512 288c-2.272 0-4.288 0.832-6.4 1.28C723.36 302.56 896 482.88 896 704c0 5.408-0.608 10.656-0.8 16 0.192 5.344 0.8 10.592 0.8 16h64c0-247.424-200.576-448-448-448z" fill="#FFFFFF" /><path d="M0 800a128 128 0 0 0 128 128h768a128 128 0 0 0 128-128H0z" fill="#EAEAEA" /><path d="M896 896H128a127.68 127.68 0 0 1-123.456-96H0a128 128 0 0 0 128 128h768a128 128 0 0 0 128-128h-4.544A127.68 127.68 0 0 1 896 896z" fill="" /></svg>